<svg width="26" height="27" viewBox="0 0 26 27" fill="none" xmlns="http://www.w3.org/2000/svg">
<path d="M12.6142 11.9018C11.7822 12.4391 10.8808 12.7078 9.91016 12.7078C9.26882 12.7078 8.64916 12.5821 8.05116 12.3308C7.45316 12.0795 6.92449 11.7285 6.46516 11.2778C6.00582 10.8271 5.65482 10.3028 5.41216 9.7048C5.16949 9.1068 5.04816 8.48713 5.04816 7.8458C5.04816 6.84047 5.32116 5.93047 5.86716 5.1158C6.41316 4.30113 7.13249 3.70747 8.02516 3.3348C8.91782 2.96214 9.86682 2.87113 10.8722 3.0618C11.8082 3.23513 12.6315 3.6728 13.3422 4.3748C14.0528 5.0768 14.4992 5.9088 14.6812 6.8708C14.8632 7.8328 14.7722 8.77313 14.4082 9.6918C14.0442 10.6105 13.4462 11.3471 12.6142 11.9018ZM11.4182 5.5838C10.9675 5.28913 10.4648 5.1418 9.91016 5.1418C9.18216 5.1418 8.54082 5.4018 7.98616 5.9218C7.46616 6.47647 7.20616 7.1178 7.20616 7.8458C7.20616 8.40047 7.35782 8.90313 7.66116 9.3538C7.96449 9.80447 8.36749 10.1338 8.87016 10.3418C9.37282 10.5498 9.89282 10.6018 10.4302 10.4978C10.9675 10.3938 11.4312 10.1468 11.8212 9.7568C12.2112 9.3668 12.4582 8.90313 12.5622 8.3658C12.6662 7.82847 12.6142 7.30847 12.4062 6.8058C12.1982 6.30313 11.8688 5.8958 11.4182 5.5838ZM3.02016 16.6598C3.92149 15.7411 4.97016 15.0348 6.16616 14.5408C7.36216 14.0468 8.61016 13.7998 9.91016 13.7998C11.2102 13.7998 12.4582 14.0468 13.6542 14.5408C14.8502 15.0348 15.9032 15.7368 16.8132 16.6468C17.7232 17.5568 18.4252 18.6098 18.9192 19.8058C19.4132 21.0018 19.6602 22.2498 19.6602 23.5498C19.6602 23.8618 19.5475 24.1218 19.3222 24.3298C19.0968 24.5378 18.8455 24.6418 18.5682 24.6418H13.1602C12.8655 24.6418 12.6098 24.5335 12.3932 24.3168C12.1765 24.1001 12.0682 23.8445 12.0682 23.5498C12.0682 23.2551 12.1765 22.9995 12.3932 22.7828C12.6098 22.5661 12.8655 22.4578 13.1602 22.4578H17.4242C17.2855 21.5565 16.9995 20.7028 16.5662 19.8968C16.1328 19.0908 15.5695 18.3931 14.8762 17.8038C14.1828 17.2145 13.4115 16.7595 12.5622 16.4388C11.7128 16.1181 10.8288 15.9578 9.91016 15.9578C8.99149 15.9578 8.10749 16.1181 7.25816 16.4388C6.40882 16.7595 5.63749 17.2145 4.94416 17.8038C4.25082 18.3931 3.68749 19.0908 3.25416 19.8968C2.82082 20.7028 2.53482 21.5565 2.39616 22.4578H6.66016C6.93749 22.4578 7.19749 22.5618 7.44016 22.7698C7.64816 23.0125 7.75216 23.2725 7.75216 23.5498C7.75216 23.8271 7.64816 24.0871 7.44016 24.3298C7.19749 24.5378 6.93749 24.6418 6.66016 24.6418H1.25216C0.974823 24.6418 0.72349 24.5378 0.498156 24.3298C0.272823 24.1218 0.160156 23.8618 0.160156 23.5498C0.160156 22.2498 0.407156 21.0061 0.901156 19.8188C1.39516 18.6315 2.10149 17.5785 3.02016 16.6598Z" fill="#030712"/>
</svg>
