<svg width="31" height="32" viewBox="0 0 31 32" fill="none" xmlns="http://www.w3.org/2000/svg">
<path d="M26.4479 4.6748H1.27592C0.965918 4.71614 0.707585 4.86081 0.500918 5.1088C0.294251 5.35681 0.190918 5.63581 0.190918 5.9458C0.190918 6.25581 0.294251 6.53997 0.500918 6.79831C0.707585 7.05664 0.965918 7.20647 1.27592 7.2478H6.26692L5.36792 18.6868V18.9038C5.36792 19.6065 5.62108 20.211 6.12742 20.7173C6.63375 21.2236 7.23825 21.4768 7.94092 21.4768H23.7819C24.4019 21.4768 24.9444 21.2856 25.4094 20.9033C25.8744 20.521 26.1689 20.0508 26.2929 19.4928L28.9589 7.83681C29.0003 7.5888 29.0209 7.39247 29.0209 7.2478C29.0209 6.52447 28.7729 5.9148 28.2769 5.4188C27.7809 4.92281 27.1713 4.6748 26.4479 4.6748ZM23.7819 18.8728H7.94092L8.83992 7.2478H26.4479L23.7819 18.8728ZM10.3279 27.9248C11.0513 27.9248 11.6661 27.6716 12.1724 27.1653C12.6788 26.659 12.9319 26.0441 12.9319 25.3208C12.9319 24.5975 12.6788 23.9878 12.1724 23.4918C11.6661 22.9958 11.0513 22.7478 10.3279 22.7478C9.62525 22.7478 9.02075 22.9958 8.51442 23.4918C8.00808 23.9878 7.75492 24.5975 7.75492 25.3208C7.75492 26.0441 8.00808 26.659 8.51442 27.1653C9.02075 27.6716 9.62525 27.9248 10.3279 27.9248ZM21.9529 27.9248C22.6763 27.9248 23.2911 27.6716 23.7974 27.1653C24.3038 26.659 24.5569 26.0441 24.5569 25.3208C24.5569 24.5975 24.3038 23.9878 23.7974 23.4918C23.2911 22.9958 22.6763 22.7478 21.9529 22.7478C21.2503 22.7478 20.6458 22.9958 20.1394 23.4918C19.6331 23.9878 19.3799 24.5975 19.3799 25.3208C19.3799 26.0441 19.6331 26.659 20.1394 27.1653C20.6458 27.6716 21.2503 27.9248 21.9529 27.9248Z" fill="#030712"/>
</svg>
