<svg width="20" height="24" viewBox="0 0 20 24" fill="none" xmlns="http://www.w3.org/2000/svg">
<path d="M9.70216 0.203806C7.98616 0.203806 6.39149 0.63714 4.91816 1.50381C3.47949 2.33581 2.33549 3.47114 1.48616 4.90981C0.602156 6.40047 0.160156 8.01247 0.160156 9.74581C0.160156 11.6005 0.792823 13.5678 2.05816 15.6478C3.01149 17.2251 4.28549 18.8198 5.88016 20.4318C6.74682 21.2985 7.73482 22.1998 8.84416 23.1358L9.15616 23.3958C9.20816 23.4478 9.28616 23.4955 9.39016 23.5388C9.49416 23.5821 9.60249 23.6038 9.71516 23.6038C9.82782 23.6038 9.92316 23.5908 10.0012 23.5648C10.0792 23.5388 10.1615 23.4825 10.2482 23.3958L10.5602 23.1358C11.6695 22.1998 12.6575 21.2985 13.5242 20.4318C15.1188 18.8198 16.3928 17.2251 17.3462 15.6478C18.6115 13.5678 19.2442 11.6005 19.2442 9.74581C19.2442 8.01247 18.8022 6.40047 17.9182 4.90981C17.0688 3.47114 15.9248 2.33581 14.4862 1.50381C13.0128 0.63714 11.4182 0.203806 9.70216 0.203806ZM9.70216 21.5498C8.78349 20.8045 7.84749 19.9465 6.89416 18.9758C5.49016 17.5025 4.37216 16.0638 3.54016 14.6598C2.44816 12.8398 1.90216 11.1671 1.90216 9.64181C1.90216 8.22047 2.25749 6.90314 2.96816 5.68981C3.64416 4.51114 4.57149 3.58381 5.75016 2.90781C6.96349 2.19714 8.28082 1.84181 9.70216 1.84181C11.1235 1.84181 12.4408 2.20581 13.6542 2.93381C14.8328 3.62714 15.7688 4.57181 16.4622 5.76781C17.1555 6.96381 17.5022 8.25514 17.5022 9.64181C17.5022 11.2191 16.9562 12.9178 15.8642 14.7378C15.0322 16.1245 13.9142 17.5458 12.5102 19.0018C11.5915 19.9378 10.6555 20.7871 9.70216 21.5498ZM9.70216 5.61181C8.95682 5.61181 8.27216 5.79814 7.64816 6.17081C7.02416 6.54347 6.52582 7.04614 6.15316 7.67881C5.78049 8.31147 5.59416 9.00047 5.59416 9.74581C5.59416 10.4911 5.78049 11.1801 6.15316 11.8128C6.52582 12.4455 7.02416 12.9438 7.64816 13.3078C8.27216 13.6718 8.95682 13.8538 9.70216 13.8538C10.4475 13.8538 11.1365 13.6675 11.7692 13.2948C12.4018 12.9221 12.9002 12.4238 13.2642 11.7998C13.6282 11.1758 13.8102 10.4911 13.8102 9.74581C13.8102 9.00047 13.6282 8.31147 13.2642 7.67881C12.9002 7.04614 12.4018 6.54347 11.7692 6.17081C11.1365 5.79814 10.4475 5.61181 9.70216 5.61181ZM9.70216 12.1118C9.04349 12.1118 8.48016 11.8778 8.01216 11.4098C7.54416 10.9418 7.31016 10.3871 7.31016 9.74581C7.31016 9.31247 7.41849 8.91381 7.63516 8.54981C7.85182 8.18581 8.14216 7.89547 8.50616 7.67881C8.87016 7.46214 9.26882 7.35381 9.70216 7.35381C10.1355 7.35381 10.5342 7.46214 10.8982 7.67881C11.2622 7.89547 11.5525 8.18581 11.7692 8.54981C11.9858 8.91381 12.0942 9.31247 12.0942 9.74581C12.0942 10.3871 11.8602 10.9418 11.3922 11.4098C10.9242 11.8778 10.3608 12.1118 9.70216 12.1118Z" fill="#030712"/>
</svg>
