<svg width="18" height="19" viewBox="0 0 18 19" fill="none" xmlns="http://www.w3.org/2000/svg">
<path d="M6 15.0498C6.39782 15.0498 6.77936 14.8918 7.06066 14.6105C7.34196 14.3292 7.5 13.9476 7.5 13.5498C7.5 13.152 7.34196 12.7704 7.06066 12.4891C6.77936 12.2078 6.39782 12.0498 6 12.0498C5.60218 12.0498 5.22064 12.2078 4.93934 12.4891C4.65804 12.7704 4.5 13.152 4.5 13.5498C4.5 13.9476 4.65804 14.3292 4.93934 14.6105C5.22064 14.8918 5.60218 15.0498 6 15.0498V15.0498ZM13.5 15.0498C13.8978 15.0498 14.2794 14.8918 14.5607 14.6105C14.842 14.3292 15 13.9476 15 13.5498C15 13.152 14.842 12.7704 14.5607 12.4891C14.2794 12.2078 13.8978 12.0498 13.5 12.0498C13.1022 12.0498 12.7206 12.2078 12.4393 12.4891C12.158 12.7704 12 13.152 12 13.5498C12 13.9476 12.158 14.3292 12.4393 14.6105C12.7206 14.8918 13.1022 15.0498 13.5 15.0498V15.0498Z" stroke="white" stroke-width="1.5" stroke-miterlimit="1.5" stroke-linecap="round" stroke-linejoin="round"/>
<path d="M7.5375 13.5498H11.25V5.7498C11.25 5.63046 11.2026 5.516 11.1182 5.43161C11.0338 5.34722 10.9193 5.2998 10.8 5.2998H0.75M4.2375 13.5498H2.7C2.64091 13.5498 2.58239 13.5382 2.52779 13.5156C2.4732 13.4929 2.42359 13.4598 2.3818 13.418C2.34002 13.3762 2.30687 13.3266 2.28425 13.272C2.26164 13.2174 2.25 13.1589 2.25 13.0998V9.4248" stroke="white" stroke-width="1.5" stroke-linecap="round"/>
<path d="M1.5 7.5498H4.5" stroke="white" stroke-width="1.5" stroke-linecap="round" stroke-linejoin="round"/>
<path d="M11.25 7.5498H15.4575C15.5445 7.54983 15.6296 7.57506 15.7025 7.62244C15.7755 7.66983 15.8331 7.73734 15.8685 7.8168L17.211 10.8378C17.2366 10.8952 17.2499 10.9572 17.25 11.0201V13.0998C17.25 13.1589 17.2384 13.2174 17.2157 13.272C17.1931 13.3266 17.16 13.3762 17.1182 13.418C17.0764 13.4598 17.0268 13.4929 16.9722 13.5156C16.9176 13.5382 16.8591 13.5498 16.8 13.5498H15.375M11.25 13.5498H12" stroke="white" stroke-width="1.5" stroke-linecap="round"/>
</svg>
