<svg width="58" height="58" viewBox="0 0 58 58" fill="none" xmlns="http://www.w3.org/2000/svg">
<g clip-path="url(#clip0_14_575)">
<mask id="mask0_14_575" style="mask-type:luminance" maskUnits="userSpaceOnUse" x="1" y="0" width="56" height="57">
<path d="M57 0.419678H1V56.4197H57V0.419678Z" fill="white"/>
</mask>
<g mask="url(#mask0_14_575)">
<path d="M57 30.2014L48.3455 36.4378L51.6545 46.4923L40.9636 46.365L37.6545 56.4196L29 50.1832L20.3455 56.4196L17.0364 46.365L6.34545 46.4923L9.65455 36.4378L1 30.2014L9.65455 24.0923L6.34545 14.0378H17.0364L20.3455 3.98324L29 10.0923L37.6545 3.85596L40.9636 13.9105H51.6545L48.3455 23.965L57 30.2014Z" fill="#DC2626"/>
<path d="M43.636 18.3651C47.1996 16.2014 50.5087 13.4014 52.7996 10.0923C53.9451 8.4378 54.9633 6.52871 54.7087 4.61962C54.4542 2.8378 53.1814 1.31053 51.3996 1.05599C50.5087 0.80144 49.6178 0.928713 48.8542 1.18326C48.0905 1.31053 47.3269 1.56507 46.8178 1.94689C45.2905 2.96507 44.6542 5.00144 44.1451 6.78325C43.2542 10.0923 42.4905 13.1469 41.9814 16.456" stroke="#1D1D1B" stroke-width="0.5714" stroke-miterlimit="10" stroke-linecap="round" stroke-linejoin="round"/>
<path d="M39.4366 45.4742L25.5638 44.7105L19.582 32.6196L36.1275 7.92871L55.982 20.7833L39.4366 45.4742Z" fill="#FFB709"/>
<path d="M43.6367 18.3651C47.2004 16.2014 50.5094 13.4014 52.8004 10.0923C53.9458 8.4378 54.964 6.52871 54.7094 4.61962C54.4549 2.8378 53.1822 1.31053 51.4004 1.05599C50.5094 0.80144 49.6185 0.928713 48.8549 1.18326C48.0913 1.31053 47.3276 1.56507 46.8185 1.94689C45.2913 2.96507 44.6549 5.00144 44.1458 6.78325C43.8913 7.41962 43.764 7.92871 43.6367 8.69234" stroke="#1D1D1B" stroke-width="0.5714" stroke-miterlimit="10" stroke-linecap="round" stroke-linejoin="round"/>
<path d="M43.5087 26.8923L27.9814 29.3105L28.8724 30.3287L44.3996 27.9105L43.5087 26.8923Z" fill="#1D1D1B"/>
<path d="M38.5453 31.2195C38.2907 31.0922 38.1635 31.0922 38.0362 31.0922C37.5271 30.965 37.018 30.965 36.5089 31.0922C35.9998 31.3468 35.3635 31.6013 34.8544 31.9831C34.3453 32.4922 33.9635 33.0013 33.7089 33.5104C33.4544 34.0195 33.4544 34.5286 33.5816 35.0377C33.7089 35.5468 33.9635 36.0559 34.3453 36.4377L34.4726 36.565C35.1089 37.2013 35.7453 37.4559 36.5089 37.4559C37.2726 37.4559 38.1635 37.0741 38.9271 36.4377C39.6907 35.6741 40.0726 34.9104 40.1998 34.1468C40.3271 33.3831 39.9453 32.6195 39.4362 31.9831C39.1816 31.6013 38.7998 31.4741 38.5453 31.2195ZM35.618 36.3104C35.4907 36.1831 35.2362 36.0559 35.1089 35.9286C34.7271 35.5468 34.5998 35.0377 34.7271 34.4013C34.8544 33.8922 35.1089 33.3831 35.7453 32.7468C36.3816 32.2377 36.8907 31.8559 37.3998 31.8559C37.5271 31.8559 37.5271 31.8559 37.6544 31.8559C38.1635 31.8559 38.418 31.9831 38.7998 32.365C39.1816 32.7468 39.3089 33.2559 39.1816 33.8922C39.0544 34.4013 38.6726 34.9104 38.1635 35.4195C37.6544 35.9286 37.018 36.3104 36.5089 36.3104C36.2544 36.4377 35.8726 36.4377 35.618 36.3104Z" fill="#1D1D1B"/>
<path d="M32.945 25.4922C33.5814 26.1286 34.2178 26.3831 34.9814 26.3831C34.9814 26.3831 34.9814 26.3831 35.1087 26.3831C35.8723 26.3831 36.7632 26.0013 37.5268 25.3649C38.2905 24.6013 38.6723 23.8377 38.7996 23.074C38.9268 22.3104 38.545 21.5468 38.0359 20.9104C37.7814 20.5286 37.3996 20.4013 37.145 20.274C36.7632 20.0195 36.3814 20.0195 35.8723 20.0195C35.1087 20.0195 34.2178 20.4013 33.4541 21.0377C32.6905 21.8013 32.3087 22.5649 32.1814 23.3286C31.9268 24.0922 32.1814 24.7286 32.945 25.4922ZM35.9996 20.9104C36.3814 20.9104 36.7632 21.1649 37.2723 21.4195C37.6541 21.8013 37.7814 22.3104 37.6541 22.9468C37.5268 23.4559 37.145 23.9649 36.6359 24.6013C35.9996 25.1104 35.4905 25.4922 34.9814 25.4922C34.5996 25.6195 34.345 25.4922 34.0905 25.3649C33.8359 25.2377 33.7087 25.1104 33.5814 24.9831C33.1996 24.6013 33.0723 24.0922 33.1996 23.4559C33.3268 22.9468 33.7087 22.4377 34.2178 21.8013C34.8541 21.2922 35.3632 20.9104 35.8723 20.9104C35.745 20.9104 35.8723 20.9104 35.9996 20.9104Z" fill="#1D1D1B"/>
</g>
</g>
<defs>
<clipPath id="clip0_14_575">
<rect width="57" height="57" fill="white" transform="translate(0.5 0.219727)"/>
</clipPath>
</defs>
</svg>
