<svg width="56" height="58" viewBox="0 0 56 58" fill="none" xmlns="http://www.w3.org/2000/svg">
<path d="M34.3004 39.0947C41.3004 39.0947 47.0754 33.3197 47.0754 26.3197C47.0754 19.3197 41.3004 13.5447 34.3004 13.5447C27.3004 13.5447 21.5254 19.3197 21.5254 26.3197C21.5254 33.3197 27.1254 39.0947 34.3004 39.0947Z" fill="#FFB709"/>
<path d="M25.7247 21.4197C26.5997 20.3697 26.9497 19.1447 26.9497 17.7447C26.9497 14.9447 25.0247 12.4947 22.3997 11.9697C22.5747 11.2697 22.7497 10.5697 22.7497 9.86968C22.7497 5.66968 19.2497 2.16968 14.8747 2.16968C10.6747 2.16968 7.17471 5.66968 7.17471 9.86968C7.17471 10.5697 7.34971 11.0947 7.34971 11.7947C4.89971 12.4947 2.97471 14.9447 2.97471 17.7447C2.97471 19.1447 3.49971 20.3697 4.19971 21.4197C2.79971 22.8197 1.39971 24.7447 1.74971 27.0197C2.09971 29.1197 11.0247 50.4697 11.0247 50.4697H18.7247C18.7247 50.4697 27.6497 29.1197 27.9997 27.0197C28.5247 24.7447 27.1247 22.8197 25.7247 21.4197Z" fill="#DC2626"/>
<path d="M14.875 10.9197V49.9447" stroke="#1D1D1B" stroke-width="1.5" stroke-miterlimit="10" stroke-linecap="round" stroke-linejoin="round"/>
<path d="M8.22461 27.8948L14.8746 35.4198" stroke="#1D1D1B" stroke-width="1.5" stroke-miterlimit="10" stroke-linecap="round" stroke-linejoin="round"/>
<path d="M21.7 27.8948L14.875 35.4198" stroke="#1D1D1B" stroke-width="1.5" stroke-miterlimit="10" stroke-linecap="round" stroke-linejoin="round"/>
<path d="M8.22461 16.8696L15.0496 24.5696" stroke="#1D1D1B" stroke-width="1.5" stroke-miterlimit="10" stroke-linecap="round" stroke-linejoin="round"/>
<path d="M21.7 16.8696L14.875 24.5696" stroke="#1D1D1B" stroke-width="1.5" stroke-miterlimit="10" stroke-linecap="round" stroke-linejoin="round"/>
<path d="M42.3496 38.3948C42.6996 39.6198 42.8746 40.8448 43.0496 41.8948H54.2496L49.6996 28.0698L40.5996 34.8948C41.2996 35.9448 41.8246 37.1698 42.3496 38.3948Z" fill="#DC2626"/>
<path d="M2.45039 51.5198C1.75039 49.5948 2.45039 47.4948 3.85039 46.6198L29.9254 31.2198C34.4754 28.9448 40.2504 32.2698 42.3504 38.3948C44.2754 44.5198 41.6504 50.6448 36.5754 51.5198L6.4754 54.6698C4.9004 54.8448 3.15039 53.4448 2.45039 51.5198Z" stroke="#1D1D1B" stroke-width="1.5" stroke-miterlimit="10" stroke-linecap="round" stroke-linejoin="round"/>
<path d="M29.5752 31.5698C29.7502 31.9198 33.4252 43.9948 33.4252 43.9948" stroke="#1D1D1B" stroke-width="1.5" stroke-miterlimit="10" stroke-linecap="round" stroke-linejoin="round"/>
<path d="M25.375 45.3948C25.55 45.7448 27.65 52.3948 27.65 52.3948" stroke="#1D1D1B" stroke-width="1.5" stroke-miterlimit="10" stroke-linecap="round" stroke-linejoin="round"/>
<path d="M17.8496 38.7446C18.0246 39.0946 20.1246 45.7446 20.1246 45.7446" stroke="#1D1D1B" stroke-width="1.5" stroke-miterlimit="10" stroke-linecap="round" stroke-linejoin="round"/>
<path d="M7.875 49.0698L9.45 54.1448" stroke="#1D1D1B" stroke-width="1.5" stroke-miterlimit="10" stroke-linecap="round" stroke-linejoin="round"/>
<path d="M38.8502 8.46973L36.5752 17.0447" stroke="#1D1D1B" stroke-width="1.5" stroke-miterlimit="10" stroke-linecap="round" stroke-linejoin="round"/>
<path d="M39.8998 16.8697C39.3748 17.2197 38.6748 17.2197 37.9748 17.2197C36.5748 17.2197 35.1748 16.5197 34.2998 15.4697" stroke="#1D1D1B" stroke-width="1.5" stroke-miterlimit="10" stroke-linecap="round" stroke-linejoin="round"/>
</svg>
